<svg version="1.2" baseProfile="tiny-ps" xmlns="http://www.w3.org/2000/svg" viewBox="0 0 1024 1024" width="1024" height="1024">
	<title>Vector Smart Object-pdf</title>
	<defs>
		<clipPath clipPathUnits="userSpaceOnUse" id="cp1">
			<path d="M0 0L1024 0L1024 1024L0 1024Z" />
		</clipPath>
		<clipPath clipPathUnits="userSpaceOnUse" id="cp2">
			<path d="M0 0L1024 0L1024 1024L0 1024L0 0Z" />
		</clipPath>
	</defs>
	<style>
		tspan { white-space:pre }
		.shp0 { fill: #000000 } 
	</style>
	<g id="Page 1" clip-path="url(#cp1)">
		<g id="Mask" clip-path="url(#cp2)">
			<path id="Path 2" class="shp0" d="M832.6 804.4C783 864.2 748.2 864.2 704 864.2C656.4 864.2 588.4 834.8 517.6 783.6C454 737.6 425.6 716.4 361.6 650.8C293.6 581 250.8 523 203.6 436.6C149 336.8 156.6 288.8 168 251.8C175.6 227.2 195.8 203 223.6 185.4C224.6 184.8 225.6 184 226.6 183.4C239 175.4 262.4 160.2 290.6 160.2C316 160.2 338.8 172.2 358.4 196.2L360.4 198.6C383.2 226.4 409 258 424.8 291C444.6 332.8 443.8 368.8 422.2 398C404.4 422.2 397.4 435.2 398 443.2C398.6 451.4 408.6 462.6 423.8 479.8L425.2 481.4C457 517.4 466 526.6 478.4 539.4C480.6 541.6 482.8 544 485.4 546.6L489 550.4C503.2 565.2 511 573.4 547.6 605.2L549.8 607.2C563 618.6 569 623.6 574.6 623.6C584.8 623.6 606 610.4 632.6 593.4C641.6 587.6 652.6 584.8 665.2 584.8C719.6 584.8 802.6 641 831.8 671C863 703.2 884.6 741.6 832.6 804.4Z" />
		</g>
	</g>
</svg>